# xmcd CD database file
#
# Track frame offsets:
#	150
#	18853
#	32262
#	52370
#	77800
#	98437
#	113721
#	129517
#	154265
#	175315
#	191028
#
# Disc length: 2818 seconds
#
# Revision: 1
# Processed by: cddbd v1.5.2PL0 Copyright (c) Steve Scherf et al.
# Submitted via: CDex 1.75
#
DISCID=850b000b
DTITLE=Sweet Screamin JONES Boney FIELDS - Sweet Screamin' JONES meets Boney FIELDS
DYEAR=2015
DGENRE=Jazz
TTITLE0=Sherry
TTITLE1=Silly Little Cynthia
TTITLE2=Goin' To Chicago
TTITLE3=Who She Do
TTITLE4=Way Back Home
TTITLE5=There'll Be No Next Time
TTITLE6=All RIght Okay You Win
TTITLE7=Just the Way You Are
TTITLE8=Walk Tall
TTITLE9=I Want a Little Girl
TTITLE10=You Are My Sunshine
EXTD=YEAR: 2015
EXTT0=
EXTT1=
EXTT2=
EXTT3=
EXTT4=
EXTT5=
EXTT6=
EXTT7=
EXTT8=
EXTT9=
EXTT10=
PLAYORDER=
